{
	"asset":{
		"generator":"Khronos glTF Blender I/O v4.0.44",
		"version":"2.0"
	},
	"scene":0,
	"scenes":[
		{
			"name":"Scene",
			"nodes":[
				0,
				1,
				2,
				3,
				4
			]
		}
	],
	"nodes":[
		{
			"name":"Captura de pantalla 2024-03-15 132330.001",
			"rotation":[
				0,
				0.7071068286895752,
				0,
				0.7071068286895752
			],
			"scale":[
				11.75316047668457,
				11.75316047668457,
				11.75316047668457
			],
			"translation":[
				-1.2002766132354736,
				0.1959618777036667,
				0
			]
		},
		{
			"name":"Captura de pantalla 2024-03-15 132330.002",
			"rotation":[
				0,
				0.7071068286895752,
				0,
				0.7071068286895752
			],
			"scale":[
				11.75316047668457,
				11.75316047668457,
				11.75316047668457
			],
			"translation":[
				-1.2002766132354736,
				0.1959618777036667,
				0
			]
		},
		{
			"mesh":0,
			"name":"Cubo",
			"translation":[
				-5.899399757385254,
				0.9073893427848816,
				-2.8837523460388184
			]
		},
		{
			"mesh":1,
			"name":"ImageToStl.com_150213025100198471",
			"rotation":[
				0.5,
				-0.5,
				0.5,
				0.5
			],
			"scale":[
				0.0038620796985924244,
				0.0038620796985924244,
				0.0038620796985924244
			],
			"translation":[
				-6.1678147315979,
				2.6091315746307373,
				-3.4753034114837646
			]
		},
		{
			"mesh":2,
			"name":"Cubo.001",
			"translation":[
				-5.899399757385254,
				0.9073893427848816,
				-2.8837523460388184
			]
		}
	],
	"meshes":[
		{
			"name":"Cubo",
			"primitives":[
				{
					"attributes":{
						"POSITION":0,
						"NORMAL":1,
						"TEXCOORD_0":2
					},
					"indices":3
				}
			]
		},
		{
			"name":"ImageToStl.com_150213025100198471",
			"primitives":[
				{
					"attributes":{
						"POSITION":4,
						"NORMAL":5
					},
					"indices":6
				}
			]
		},
		{
			"name":"Cubo.003",
			"primitives":[
				{
					"attributes":{
						"POSITION":7,
						"NORMAL":8,
						"TEXCOORD_0":9
					},
					"indices":10
				}
			]
		}
	],
	"accessors":[
		{
			"bufferView":0,
			"componentType":5126,
			"count":1762,
			"max":[
				10.57998275756836,
				2.061556577682495,
				7.19671106338501
			],
			"min":[
				-1.1236648559570312,
				-0.8264915943145752,
				-1.4709463119506836
			],
			"type":"VEC3"
		},
		{
			"bufferView":1,
			"componentType":5126,
			"count":1762,
			"type":"VEC3"
		},
		{
			"bufferView":2,
			"componentType":5126,
			"count":1762,
			"type":"VEC2"
		},
		{
			"bufferView":3,
			"componentType":5123,
			"count":2742,
			"type":"SCALAR"
		},
		{
			"bufferView":4,
			"componentType":5126,
			"count":3881,
			"max":[
				45.766048431396484,
				3.1919009685516357,
				60.522369384765625
			],
			"min":[
				-45.80971145629883,
				-5.006017684936523,
				-60.32438278198242
			],
			"type":"VEC3"
		},
		{
			"bufferView":5,
			"componentType":5126,
			"count":3881,
			"type":"VEC3"
		},
		{
			"bufferView":6,
			"componentType":5123,
			"count":7431,
			"type":"SCALAR"
		},
		{
			"bufferView":7,
			"componentType":5126,
			"count":116,
			"max":[
				3.942790985107422,
				1.1307039260864258,
				1.8427700996398926
			],
			"min":[
				0.19323110580444336,
				-0.5258824825286865,
				-1.2330632209777832
			],
			"type":"VEC3"
		},
		{
			"bufferView":8,
			"componentType":5126,
			"count":116,
			"type":"VEC3"
		},
		{
			"bufferView":9,
			"componentType":5126,
			"count":116,
			"type":"VEC2"
		},
		{
			"bufferView":10,
			"componentType":5123,
			"count":192,
			"type":"SCALAR"
		}
	],
	"bufferViews":[
		{
			"buffer":0,
			"byteLength":21144,
			"byteOffset":0,
			"target":34962
		},
		{
			"buffer":0,
			"byteLength":21144,
			"byteOffset":21144,
			"target":34962
		},
		{
			"buffer":0,
			"byteLength":14096,
			"byteOffset":42288,
			"target":34962
		},
		{
			"buffer":0,
			"byteLength":5484,
			"byteOffset":56384,
			"target":34963
		},
		{
			"buffer":0,
			"byteLength":46572,
			"byteOffset":61868,
			"target":34962
		},
		{
			"buffer":0,
			"byteLength":46572,
			"byteOffset":108440,
			"target":34962
		},
		{
			"buffer":0,
			"byteLength":14862,
			"byteOffset":155012,
			"target":34963
		},
		{
			"buffer":0,
			"byteLength":1392,
			"byteOffset":169876,
			"target":34962
		},
		{
			"buffer":0,
			"byteLength":1392,
			"byteOffset":171268,
			"target":34962
		},
		{
			"buffer":0,
			"byteLength":928,
			"byteOffset":172660,
			"target":34962
		},
		{
			"buffer":0,
			"byteLength":384,
			"byteOffset":173588,
			"target":34963
		}
	],
	"buffers":[
		{
			"byteLength":173972,
			"uri":"institutonacional.bin"
		}
	]
}
